<?xml version="1.0" encoding="UTF-8" standalone="no"?>
<!-- Created with Inkscape (http://www.inkscape.org/) -->

<svg
   width="64"
   height="64"
   viewBox="0 0 16.933332 16.933334"
   version="1.1"
   id="svg1"
   sodipodi:docname="JellyfishIdle0.svg"
   inkscape:version="1.3.2 (091e20e, 2023-11-25, custom)"
   xmlns:inkscape="http://www.inkscape.org/namespaces/inkscape"
   xmlns:sodipodi="http://sodipodi.sourceforge.net/DTD/sodipodi-0.dtd"
   xmlns="http://www.w3.org/2000/svg"
   xmlns:svg="http://www.w3.org/2000/svg">
  <sodipodi:namedview
     id="namedview1"
     pagecolor="#505050"
     bordercolor="#ffffff"
     borderopacity="1"
     inkscape:showpageshadow="0"
     inkscape:pageopacity="0"
     inkscape:pagecheckerboard="1"
     inkscape:deskcolor="#505050"
     inkscape:document-units="mm"
     showguides="false"
     inkscape:zoom="9.84375"
     inkscape:cx="32"
     inkscape:cy="32"
     inkscape:window-width="1598"
     inkscape:window-height="868"
     inkscape:window-x="2072"
     inkscape:window-y="115"
     inkscape:window-maximized="0"
     inkscape:current-layer="layer1" />
  <defs
     id="defs1" />
  <g
     inkscape:label="Layer 1"
     inkscape:groupmode="layer"
     id="layer1">
    <path
       style="fill:#bb3ee2;fill-opacity:1;stroke:#000000;stroke-width:0.777383;stroke-linecap:round;stroke-linejoin:round;stroke-dasharray:none"
       d="m 11.308391,7.6826893 c 0,0 0.0697,1.8520508 1.601494,2.9533807 1.941029,1.395562 -1.159654,4.708299 -1.318292,5.169459 -0.190812,0.554685 0.465327,0.987156 1.085841,0.214802 1.221832,-1.520813 2.939224,-4.426821 1.524582,-5.60518 C 12.503674,9.0004746 12.600521,7.599454 12.600521,7.599454 Z"
       id="path5"
       sodipodi:nodetypes="csssscc" />
    <path
       style="fill:#bb3ee2;fill-opacity:1;stroke:#000000;stroke-width:0.777383;stroke-linecap:round;stroke-linejoin:round;stroke-dasharray:none"
       d="m 11.030039,7.7460192 c 0,0 -1.4744256,1.4490035 -0.756925,2.8946898 0.717498,1.445685 0.22726,2.969241 0.03417,3.7519 -0.19309,0.782659 0.852919,1.051693 1.103855,-0.08788 0.250937,-1.139571 0.683333,-2.306218 -0.03417,-3.751901 -0.7175,-1.4456862 0.756927,-2.8946897 0.756927,-2.8946897 z"
       id="path4"
       sodipodi:nodetypes="cszzscc" />
    <path
       style="fill:#bb3ee2;fill-opacity:1;stroke:#000000;stroke-width:0.777383;stroke-linecap:round;stroke-linejoin:round;stroke-dasharray:none"
       d="m 5.8401374,8.1116736 c 0,0 1.4744263,1.4490045 0.7569271,2.8946884 -0.7175003,1.445686 -0.2364348,2.953851 -0.034169,3.7519 0.2022653,0.79805 -0.8301952,1.01147 -1.0811321,0.187124 C 5.230826,14.12104 4.8247007,12.429004 5.5422026,10.983319 6.2597028,9.537633 4.9166271,8.1937106 4.9166271,8.1937106"
       id="path4-8"
       sodipodi:nodetypes="cszzsc" />
    <path
       style="fill:#bb3ee2;fill-opacity:1;stroke:#000000;stroke-width:0.777383;stroke-linecap:round;stroke-linejoin:round;stroke-dasharray:none"
       d="m 5.1657057,7.6429285 c 0,0 0.5466655,1.4112656 -1.0591656,3.2700045 -1.6058332,1.858738 -0.512501,2.822529 0,3.407687 0.512499,0.585159 0.6612529,1.182172 0.6149986,1.411264 -0.1448262,0.717308 -0.8911219,0.636981 -1.213963,0.0336 C 3.3973621,15.559501 3.4050771,14.939381 2.8925761,14.354222 2.380077,13.769064 1.2079325,12.621379 2.8137645,10.76264 4.4195967,8.9039021 3.9517417,7.6765311 3.9517417,7.6765311 Z"
       id="path3"
       sodipodi:nodetypes="csssssscc" />
    <path
       style="fill:#bb3ee2;fill-opacity:1;stroke:#000000;stroke-width:0.777383;stroke-linecap:round;stroke-linejoin:round;stroke-dasharray:none"
       d="m 9.1887325,8.1674596 c 0,0 -1.4614211,1.3685319 0.060886,3.2962734 0.8744235,1.107306 0.460392,3.78337 -1.1322015,4.818953 -0.1922277,0.119798 -0.5583728,0.160112 -0.6772847,-0.03354 -0.2682851,-0.436917 0.1024996,-0.826106 0.6149987,-1.411265 0.5125,-0.585157 1.2117744,-1.391323 0,-3.407686 C 6.7898532,9.324799 7.9942459,8.1339166 7.9942459,8.1339166 Z"
       id="path3-1"
       sodipodi:nodetypes="cssssssc" />
    <path
       style="fill:#bb3ee2;fill-opacity:1;stroke:#000000;stroke-width:0.760986;stroke-linecap:round;stroke-linejoin:round;stroke-dasharray:none"
       d="M 1.091159,6.4719671 C 1.1175876,4.6878838 2.3068983,0.40608274 8.5970217,0.3805954 14.887148,0.35511491 15.838594,4.993727 15.838594,6.0386912 c 0,1.0449612 -0.713585,1.2488569 -0.713585,1.2488569 0,0 -0.132146,0.1274348 -0.422866,0.1529211 C 14.411423,7.4659497 10.87455,8.1653448 3.9455013,7.720826 3.4486307,7.6889436 1.0647305,7.720827 1.091159,6.4719671 Z"
       id="path2-8"
       sodipodi:nodetypes="csscssc" />
    <path
       style="fill:#de3be5;fill-opacity:1;stroke:#000000;stroke-width:0.760986;stroke-linecap:round;stroke-linejoin:round;stroke-dasharray:none"
       d="M 2.5717273,7.8673618 C 2.5934644,6.1095733 3.5717277,1.890882 8.7456316,1.86577 13.919536,1.840661 14.702143,6.4109077 14.702143,7.4404692 c 0,1.0295615 -0.586954,1.2304528 -0.586954,1.2304528 0,0 -0.108697,0.1255562 -0.347825,0.1506672 -0.239133,0.025109 -3.148364,0.7141918 -8.8478129,0.2762235 -0.4086985,-0.031403 -2.3695628,0 -2.3478238,-1.2304509 z"
       id="path2-2-7"
       sodipodi:nodetypes="csscssc" />
  </g>
</svg>
