<?xml version="1.0" encoding="UTF-8" standalone="no"?>
<!-- Created with Inkscape (http://www.inkscape.org/) -->

<svg
   width="64"
   height="64"
   viewBox="0 0 16.933332 16.933334"
   version="1.1"
   id="svg1"
   sodipodi:docname="JellyfishIdle1.svg"
   inkscape:version="1.3.2 (091e20e, 2023-11-25, custom)"
   xmlns:inkscape="http://www.inkscape.org/namespaces/inkscape"
   xmlns:sodipodi="http://sodipodi.sourceforge.net/DTD/sodipodi-0.dtd"
   xmlns="http://www.w3.org/2000/svg"
   xmlns:svg="http://www.w3.org/2000/svg">
  <sodipodi:namedview
     id="namedview1"
     pagecolor="#505050"
     bordercolor="#ffffff"
     borderopacity="1"
     inkscape:showpageshadow="0"
     inkscape:pageopacity="0"
     inkscape:pagecheckerboard="1"
     inkscape:deskcolor="#505050"
     inkscape:document-units="mm"
     showguides="false"
     inkscape:zoom="9.84375"
     inkscape:cx="32"
     inkscape:cy="32"
     inkscape:window-width="1598"
     inkscape:window-height="868"
     inkscape:window-x="2072"
     inkscape:window-y="115"
     inkscape:window-maximized="0"
     inkscape:current-layer="layer1" />
  <defs
     id="defs1" />
  <g
     inkscape:label="Layer 1"
     inkscape:groupmode="layer"
     id="layer1">
    <path
       style="fill:#bb3ee2;fill-opacity:1;stroke:#000000;stroke-width:0.777383;stroke-linecap:round;stroke-linejoin:round;stroke-dasharray:none"
       d="m 12.96046,6.8494618 c 0,0 0.71689,2.8016763 0.951945,4.6735922 0.262992,2.094398 -0.627544,2.961208 0.05501,3.852423 0.581247,0.758934 -0.397891,1.340249 -0.978328,0.456706 -0.993944,-1.512984 0.178659,-2.169044 -0.153789,-4.3419 C 12.501005,9.3053526 11.937113,7.6263323 11.937113,7.6263323 Z"
       id="path5"
       sodipodi:nodetypes="csssscc" />
    <path
       style="fill:#bb3ee2;fill-opacity:1;stroke:#000000;stroke-width:0.777383;stroke-linecap:round;stroke-linejoin:round;stroke-dasharray:none"
       d="m 10.483225,7.7460192 c 0,0 1.796966,1.7177866 1.079465,3.1634728 -0.717498,1.445685 -0.22726,2.969241 -0.03417,3.7519 0.19309,0.782659 -0.852919,1.051693 -1.103855,-0.08788 -0.250937,-1.139571 -0.6833333,-2.306218 0.03417,-3.751901 0.7175,-1.4456861 -1.079467,-3.1634727 -1.079467,-3.1634727 z"
       id="path4"
       sodipodi:nodetypes="cszzscc" />
    <path
       style="fill:#bb3ee2;fill-opacity:1;stroke:#000000;stroke-width:0.777383;stroke-linecap:round;stroke-linejoin:round;stroke-dasharray:none"
       d="m 6.3522081,8.1116736 c 0,0 -1.4744263,1.4490045 -0.7569271,2.8946884 0.7175003,1.445686 0.2364348,2.953851 0.034169,3.7519 -0.2022653,0.79805 0.8301952,1.01147 1.0811321,0.187124 C 6.9615195,14.12104 7.3676448,12.429004 6.6501429,10.983319 5.9326427,9.537633 7.2757184,8.1937106 7.2757184,8.1937106 Z"
       id="path4-8"
       sodipodi:nodetypes="cszzscc" />
    <path
       style="fill:#bb3ee2;fill-opacity:1;stroke:#000000;stroke-width:0.777383;stroke-linecap:round;stroke-linejoin:round;stroke-dasharray:none"
       d="m 5.2472564,7.2930342 c 0,0 -2.1651917,1.2817339 -1.9365819,3.7274118 0.1812829,1.939373 0.5931359,2.258085 0.080635,2.843243 -0.512499,0.585159 -0.9031576,1.639103 -0.8569033,1.868195 0.1448262,0.717308 0.8911219,0.636981 1.213963,0.0336 0.1102136,-0.205983 0.1024986,-0.826103 0.6149996,-1.411262 0.5124991,-0.585158 0.2600933,-1.383425 0.078812,-3.591582 -0.20098,-2.4481035 1.750257,-2.2264793 1.750257,-2.2264793 z"
       id="path3"
       sodipodi:nodetypes="csssssscc" />
    <path
       style="fill:#bb3ee2;fill-opacity:1;stroke:#000000;stroke-width:0.777383;stroke-linecap:round;stroke-linejoin:round;stroke-dasharray:none"
       d="m 7.8781101,8.1674596 c 0,0 1.4614211,1.3685319 -0.060886,3.2962734 -0.8744235,1.107306 -0.460392,3.78337 1.1322015,4.818953 0.1922277,0.119798 0.5583728,0.160112 0.6772847,-0.03354 0.2682851,-0.436917 -0.1024996,-0.826106 -0.6149987,-1.411265 -0.5125,-0.585157 -1.2117744,-1.391323 0,-3.407686 1.2652774,-2.105396 0.060885,-3.2962784 0.060885,-3.2962784 z"
       id="path3-1"
       sodipodi:nodetypes="cssssssc" />
    <path
       style="fill:#bb3ee2;fill-opacity:1;stroke:#000000;stroke-width:0.762662;stroke-linecap:round;stroke-linejoin:round;stroke-dasharray:none"
       d="M 0.52756746,6.6565484 C 0.55601609,4.9918375 1.8362299,0.9965303 8.607129,0.97274831 c 6.770903,-0.0237756 7.79507,4.30446849 7.79507,5.27951449 0,0.9750432 -0.768126,1.1652963 -0.768126,1.1652963 0,0 -0.142247,0.1189082 -0.455188,0.1426892 -0.31294,0.023776 -4.120149,0.6763744 -11.5788081,0.2615982 -0.5348481,-0.029749 -3.10095796,10e-7 -3.07250944,-1.1652981 z"
       id="path2-8"
       sodipodi:nodetypes="csscssc" />
    <path
       style="fill:#de3be5;fill-opacity:1;stroke:#000000;stroke-width:0.762662;stroke-linecap:round;stroke-linejoin:round;stroke-dasharray:none"
       d="m 2.1213007,7.9585777 c 0.023398,-1.6401755 1.0764338,-5.5765955 6.645797,-5.6000273 5.5693643,-0.023429 6.4117873,4.241024 6.4117873,5.2016979 0,0.9606739 -0.631816,1.1481237 -0.631816,1.1481237 0,0 -0.117006,0.1171552 -0.374411,0.140586 -0.25741,0.023429 -3.389004,0.6664056 -9.5240813,0.2577416 -0.4399368,-0.029302 -2.5506766,0 -2.527276,-1.1481219 z"
       id="path2-2-7"
       sodipodi:nodetypes="csscssc" />
  </g>
</svg>
